<svg id="Camada_1" data-name="Camada 1" xmlns="http://www.w3.org/2000/svg" viewBox="0 0 1899.88 1000"><defs><style>.cls-1{fill:#1d1d1b;}</style></defs><rect class="cls-1" width="99.88" height="100"/><rect class="cls-1" x="1100" width="100" height="550.01"/><polygon class="cls-1" points="1200 650.01 1100 650.01 1100 900 1100 1000 1200 1000 1700 1000 1700 900 1200 900 1200 650.01"/><path class="cls-1" d="M877.13,389.66H987C923.18,187,733.76,40,510,40H209.88V140H460C648.71,140,810.28,243.24,877.13,389.66Z" transform="translate(-10 -39.99)"/><path class="cls-1" d="M906.47,489.66A359.45,359.45,0,0,1,910,540c0,220.92-201.47,400-450,400H10v100H510c276.14,0,500-223.86,500-500q0-25.49-2.51-50.33Z" transform="translate(-10 -39.99)"/><rect class="cls-1" x="1800" y="900" width="99.88" height="100"/></svg>